<svg width="84" height="28" viewBox="0 0 84 28" fill="none" xmlns="http://www.w3.org/2000/svg"><path fill-rule="evenodd" clip-rule="evenodd" d="M44.0651 6.17759H45.2189L44.7728 4.68014H44.5113L44.0651 6.17759ZM45.4564 6.96345H43.8396L43.4954 8.12907H42.621L43.9704 3.81641H45.3437L46.699 8.12907H45.8006L45.4564 6.96345Z" fill="#F5F5F5"/><path fill-rule="evenodd" clip-rule="evenodd" d="M48.2007 4.62024V8.12907H47.2988V3.81641H50.4172V4.62024H48.2007Z" fill="#F5F5F5"/><path fill-rule="evenodd" clip-rule="evenodd" d="M54.3756 7.32524V8.12907H51.1372V3.81641H54.3096V4.62024H52.032V5.5259H53.8047V6.31056H52.032V7.32524H54.3756Z" fill="#F5F5F5"/><path fill-rule="evenodd" clip-rule="evenodd" d="M58.9328 3.81641V8.12907H58.0309V6.32254H56.1166V8.12907H55.2147V3.81641H56.1166V5.49595H58.0309V3.81641H58.9328Z" fill="#F5F5F5"/><path fill-rule="evenodd" clip-rule="evenodd" d="M63.0112 4.60826H61.6642V8.12907H60.7599V4.60826H59.413V3.81641H63.0112V4.60826Z" fill="#F5F5F5"/><path fill-rule="evenodd" clip-rule="evenodd" d="M67.2086 6.80532C67.0767 7.65587 66.423 8.24886 65.4215 8.24886C64.1142 8.24886 63.3705 7.33841 63.3705 6.03263C63.3705 4.72686 64.1202 3.81641 65.4215 3.81641C66.3751 3.81641 67.0167 4.35549 67.1667 5.14015H66.2311C66.1292 4.79873 65.8473 4.61305 65.4215 4.61305C64.6539 4.61305 64.2881 5.23599 64.2881 6.03263C64.2881 6.82329 64.6539 7.45222 65.4215 7.45222C65.8833 7.45222 66.1951 7.21263 66.2791 6.80532H67.2086Z" fill="#F5F5F5"/><path fill-rule="evenodd" clip-rule="evenodd" d="M71.1669 4.60826H69.82V8.12907H68.9157V4.60826H67.5687V3.81641H71.1669V4.60826Z" fill="#F5F5F5"/><path fill-rule="evenodd" clip-rule="evenodd" d="M74.4317 6.83048C74.4317 6.46749 74.2062 6.28061 73.742 6.28061H72.6746V7.36237H73.73C74.1822 7.36237 74.4317 7.19226 74.4317 6.83048ZM74.3093 5.04312C74.3093 4.72326 74.1018 4.56633 73.6928 4.56633H72.6746V5.5271H73.6988C74.109 5.5259 74.3093 5.36896 74.3093 5.04312ZM75.3648 6.8784C75.3648 7.59717 74.8946 8.12907 73.8644 8.12907H71.7666V3.81641H73.8092C74.7735 3.81641 75.2425 4.34231 75.2425 4.95806C75.2425 5.35099 75.0662 5.68882 74.7855 5.82778V5.94878C75.0961 6.07576 75.3648 6.44953 75.3648 6.8784Z" fill="#F5F5F5"/><path fill-rule="evenodd" clip-rule="evenodd" d="M79.2404 6.03263C79.2404 5.24198 78.8721 4.61305 78.0637 4.61305C77.2613 4.61305 76.8871 5.24198 76.8871 6.03263C76.8871 6.82329 77.2613 7.45222 78.0637 7.45222C78.8721 7.45222 79.2404 6.82329 79.2404 6.03263ZM80.1627 6.03263C80.1627 7.29049 79.4263 8.24886 78.0637 8.24886C76.7 8.24886 75.9648 7.29049 75.9648 6.03263C75.9648 4.77478 76.7 3.81641 78.0637 3.81641C79.4263 3.81641 80.1627 4.77478 80.1627 6.03263Z" fill="#F5F5F5"/><path fill-rule="evenodd" clip-rule="evenodd" d="M43.8109 11.7227V14.7367H43.9296L45.5356 11.7227H46.699V16.0353H45.8631V12.9554H45.7443L44.1023 16.0353H42.9809V11.7227H43.8109Z" fill="#F5F5F5"/><path fill-rule="evenodd" clip-rule="evenodd" d="M51.4964 11.7227V16.0353H50.5945V14.2288H48.6802V16.0353H47.7783V11.7227H48.6802V13.4022H50.5945V11.7227H51.4964Z" fill="#F5F5F5"/><path fill-rule="evenodd" clip-rule="evenodd" d="M56.1743 11.7227V16.0353H55.2723V14.2288H53.3581V16.0353H52.4561V11.7227H53.3581V13.4022H55.2723V11.7227H56.1743Z" fill="#F5F5F5"/><path fill-rule="evenodd" clip-rule="evenodd" d="M60.1691 13.9389C60.1691 13.1482 59.8008 12.5193 58.9925 12.5193C58.19 12.5193 57.8158 13.1482 57.8158 13.9389C57.8158 14.7295 58.19 15.3585 58.9925 15.3585C59.8008 15.3585 60.1691 14.7295 60.1691 13.9389ZM61.0914 13.9389C61.0914 15.1967 60.355 16.1551 58.9925 16.1551C57.6287 16.1551 56.8935 15.1967 56.8935 13.9389C56.8935 12.681 57.6287 11.7227 58.9925 11.7227C60.355 11.7227 61.0914 12.681 61.0914 13.9389Z" fill="#F5F5F5"/><path fill-rule="evenodd" clip-rule="evenodd" d="M64.5962 14.7367C64.5962 14.3737 64.3707 14.1869 63.9065 14.1869H62.839V15.2686H63.8945C64.3467 15.2686 64.5962 15.0985 64.5962 14.7367ZM64.4738 12.9494C64.4738 12.6295 64.2663 12.4726 63.8573 12.4726H62.839V13.4333H63.8633C64.2735 13.4321 64.4738 13.2752 64.4738 12.9494ZM65.5293 14.7846C65.5293 15.5034 65.0591 16.0353 64.0288 16.0353H61.9311V11.7227H63.9737C64.938 11.7227 65.407 12.2486 65.407 12.8643C65.407 13.2572 65.2306 13.5951 64.95 13.734V13.855C65.2606 13.982 65.5293 14.3558 65.5293 14.7846Z" fill="#F5F5F5"/><path fill-rule="evenodd" clip-rule="evenodd" d="M67.3332 14.0838H68.487L68.0408 12.5864H67.7794L67.3332 14.0838ZM68.7245 14.8697H67.1077L66.7635 16.0353H65.8891L67.2384 11.7227H68.6118L69.9671 16.0353H69.0687L68.7245 14.8697Z" fill="#F5F5F5"/><path fill-rule="evenodd" clip-rule="evenodd" d="M73.9 16.0521H70.5668V11.7227H71.4556V15.2459H73.2679V11.7227H74.1567V15.2459H74.7648V17.1135H73.9V16.0521Z" fill="#F5F5F5"/><path fill-rule="evenodd" clip-rule="evenodd" d="M76.3144 11.7227V14.7367H76.4331L78.0379 11.7227H79.2025V16.0353H78.3665V12.9554H78.2478L76.6058 16.0353H75.4844V11.7227H76.3144Z" fill="#F5F5F5"/><path fill-rule="evenodd" clip-rule="evenodd" d="M83.2663 10.644C83.2183 11.2107 82.8129 11.5629 82.1376 11.5629C81.4636 11.5629 81.057 11.2107 81.0102 10.644H81.6663C81.6903 10.8465 81.845 11.0142 82.1376 11.0142C82.4243 11.0142 82.579 10.8537 82.609 10.644H83.2663ZM81.1122 11.7773V14.753H81.2309L82.8369 11.7773H84.0003V16.0349H83.1643V12.9932H83.0444L81.4036 16.0349H80.2822V11.7773H81.1122Z" fill="#F5F5F5"/><path fill-rule="evenodd" clip-rule="evenodd" d="M42.9809 19.751H44.3902L45.0918 21.4724H45.2118L45.9134 19.751H47.2987V24.0636H46.458V20.6998H46.3368L45.5512 22.6201H44.7284L43.9428 20.6998H43.8217V24.0636H42.9809V19.751Z" fill="#F5F5F5"/><path fill-rule="evenodd" clip-rule="evenodd" d="M51.2941 21.8476C51.2941 21.0569 50.9259 20.428 50.1175 20.428C49.3151 20.428 48.9408 21.0569 48.9408 21.8476C48.9408 22.6382 49.3151 23.2672 50.1175 23.2672C50.9259 23.2672 51.2941 22.6382 51.2941 21.8476ZM52.2164 21.8476C52.2164 23.1054 51.48 24.0638 50.1175 24.0638C48.7537 24.0638 48.0185 23.1054 48.0185 21.8476C48.0185 20.5897 48.7537 19.6313 50.1175 19.6313C51.48 19.6313 52.2164 20.5897 52.2164 21.8476Z" fill="#F5F5F5"/><path fill-rule="evenodd" clip-rule="evenodd" d="M56.6544 22.6203C56.5225 23.4708 55.8688 24.0638 54.8673 24.0638C53.56 24.0638 52.8163 23.1534 52.8163 21.8476C52.8163 20.5418 53.566 19.6313 54.8673 19.6313C55.8208 19.6313 56.4625 20.1704 56.6125 20.9551H55.6769C55.575 20.6137 55.2931 20.428 54.8673 20.428C54.0997 20.428 53.7339 21.0509 53.7339 21.8476C53.7339 22.6382 54.0997 23.2672 54.8673 23.2672C55.3291 23.2672 55.6409 23.0276 55.7249 22.6203H56.6544Z" fill="#F5F5F5"/><path fill-rule="evenodd" clip-rule="evenodd" d="M57.4936 19.751H58.3991V21.4365H59.4006L60.2222 19.751H61.1566L60.1611 21.8474L61.2117 24.0636H60.2762L59.4078 22.2511H58.3991V24.0636H57.4936V19.751Z" fill="#F5F5F5"/><path fill-rule="evenodd" clip-rule="evenodd" d="M64.477 22.765C64.477 22.4021 64.2515 22.2152 63.7874 22.2152H62.7199V23.2969H63.7754C64.2275 23.2969 64.477 23.1268 64.477 22.765ZM64.3547 20.9777C64.3547 20.6578 64.1472 20.5009 63.7382 20.5009H62.7199V21.4617H63.7442C64.1544 21.4605 64.3547 21.3035 64.3547 20.9777ZM65.4102 22.813C65.4102 23.5317 64.94 24.0636 63.9097 24.0636H61.812V19.751H63.8545C64.8189 19.751 65.2878 20.2769 65.2878 20.8926C65.2878 21.2856 65.1115 21.6234 64.8308 21.7624V21.8833C65.1415 22.0103 65.4102 22.3841 65.4102 22.813Z" fill="#F5F5F5"/><path fill-rule="evenodd" clip-rule="evenodd" d="M70.0233 24.0636H70.9265V19.751H70.0233V24.0636ZM68.6152 22.6381C68.6152 22.2332 68.3969 22.0043 67.796 22.0043H67.032V23.273H67.796C68.3969 23.273 68.6152 23.049 68.6152 22.6381ZM66.1288 24.0636V19.751H67.032V21.2125H67.9351C68.9486 21.2125 69.5424 21.7504 69.5424 22.6321C69.5424 23.5258 68.9474 24.0636 67.9351 24.0636H66.1288V24.0636Z" fill="#F5F5F5"/><path fill-rule="evenodd" clip-rule="evenodd" d="M7.21553 24.7795C7.02739 25.0123 6.74006 25.091 6.57032 24.9551C6.42103 24.8357 6.41694 24.5875 6.5468 24.371C6.43943 24.3985 6.34434 24.4567 6.28094 24.5487C6.12041 24.7805 6.21346 25.1257 6.49158 25.3197C6.76971 25.5148 7.12657 25.4832 7.28711 25.2523C7.39959 25.092 7.3863 24.8755 7.27484 24.6937C7.25746 24.7223 7.23803 24.7519 7.21553 24.7795ZM16.7343 8.33656C16.3989 8.01588 16.498 7.38267 16.498 7.38267C16.3569 7.50114 16.177 8.32839 16.4756 8.74713C16.8212 9.23327 17.131 9.30067 17.405 9.8297C17.4388 9.75413 17.3958 9.56519 17.3242 9.42323C17.2169 9.20773 17.175 9.02901 17.4285 8.95547C18.1453 8.74713 18.812 9.78068 19.2037 9.76332C19.7517 9.73983 19.8744 9.24859 19.898 9.2251C19.9215 9.20161 19.6096 9.43753 19.2568 9.39565C18.6985 9.32825 18.4398 8.70117 17.812 8.57249C17.4101 8.4918 17.0707 8.65827 16.7343 8.33656ZM16.3528 19.8517C16.1667 20.1244 16.3089 20.5094 16.8028 20.6534C17.2476 20.7831 17.542 20.9179 17.7598 21.1375C18.0799 21.4572 18.2292 21.497 18.3059 21.495L4.64081 2.55091L4.45982 2.68265C4.45982 2.68265 12.3456 13.6157 15.8528 18.4801C15.9837 18.6609 16.5175 19.6097 16.3528 19.8517ZM16.2997 20.7147C15.7802 20.728 15.1841 20.9128 14.5839 20.3573C13.8057 19.6383 12.9949 20.0978 12.9949 20.0978C12.9949 20.0978 13.5072 20.6085 13.2219 20.8189C12.7576 21.162 13.0992 21.5644 13.0583 21.7217C13.0163 21.878 12.549 21.9107 11.7668 21.5532C11.322 21.3479 10.915 21.3551 10.6471 21.398C10.4447 21.4317 10.5122 21.5787 10.5572 21.6206C10.5572 21.6206 10.8864 21.9219 11.0142 22.0056C11.1175 22.071 11.3793 22.2885 11.4774 22.2181C11.5725 22.1496 11.365 21.7646 11.365 21.7646C11.365 21.7646 12.9069 22.2793 13.4458 22.2793C14.0726 22.2793 13.4857 21.2366 13.9785 21.1876C14.227 21.162 14.5379 21.5501 15.0491 21.6237C15.406 21.6758 15.7496 21.5236 16.1003 21.4357C16.4735 21.3428 16.6146 21.8055 16.6668 22.213C16.676 22.2793 16.6893 22.4479 16.7608 22.5714C16.8835 21.9842 17.0482 20.6973 16.2997 20.7147ZM20.2016 21.9209C19.9982 21.3734 19.6106 21.6094 19.4368 21.5491C19.263 21.4889 19.038 21.2723 18.9654 20.6912C18.8928 20.1091 18.3989 20.4236 18.3989 20.4236C18.3989 20.4236 18.9705 21.5706 19.2006 22.1813C19.4317 22.791 19.626 22.3181 19.9072 22.6531C20.1904 22.9881 20.1577 24.708 19.9971 25.2615C19.7834 25.9948 19.355 26.5116 18.9184 26.8599C19.3161 26.8139 20.0575 26.0336 20.2661 25.522C20.5053 24.9347 20.3683 24.3924 20.3683 24.3924L20.7027 24.3628L20.4982 23.8297L20.8213 23.7806C20.8233 23.7806 20.4041 22.4662 20.2016 21.9209ZM6.91593 23.0085C6.50692 22.8962 6.06621 22.8758 5.62959 22.934C5.17866 23.0014 4.81566 23.1291 4.43835 23.1097C4.06308 23.1005 3.71133 22.9534 3.48228 22.6817C3.37901 22.5622 3.30436 22.4223 3.25017 22.2742C3.43116 21.8994 3.78393 21.5195 4.41176 21.1702C6.60713 19.9498 5.88113 18.573 5.74411 16.9778C5.67458 16.1679 5.83921 15.4295 6.25538 15.0557C6.84333 14.5256 7.83109 14.591 7.83109 14.591C7.71862 14.447 6.39547 13.9731 5.38521 14.2662C4.30337 14.5808 4.10296 15.3641 3.91686 15.9207C3.75632 16.4038 3.54568 16.9716 2.58961 17.373C0.981177 18.0481 1.08956 19.3135 1.08956 19.3135C1.08956 19.3135 0.506723 18.0634 2.06915 17.0074C4.05387 15.6664 3.29005 14.6359 3.95367 14.0211C4.47209 13.5421 5.09174 13.6187 6.0386 13.8771C5.86886 13.6759 3.35344 12.6209 3.06202 14.8616C2.81457 16.7664 0.995492 16.5008 0.679531 18.2932C0.457642 19.5647 1.66014 20.6299 1.66014 20.6299C1.66014 20.6299 0.698959 18.7048 2.58961 17.9266C3.89743 17.3894 4.64285 16.7684 4.83713 16.1556C4.82588 16.3517 4.82793 16.5601 4.83304 16.7878C4.85349 17.6498 5.26353 18.3228 5.13776 19.5351C5.06822 20.202 3.84937 20.8679 3.16939 21.5532C3.19291 21.2458 3.27573 20.9476 3.42911 20.7014C3.60089 20.439 3.88209 20.1571 4.00479 19.8466C4.14488 19.5402 4.16431 19.2144 4.11932 18.9509C4.08251 18.7365 4.00684 18.5659 3.92606 18.4219C3.89538 18.4341 3.86675 18.4464 3.83812 18.4556C3.97616 18.7783 4.05285 19.2686 3.78699 19.7445C3.65509 20.0172 3.42093 20.2102 3.17143 20.5299C2.94443 20.8465 2.78696 21.2448 2.76651 21.6788C2.76038 21.8167 2.77367 21.9576 2.79719 22.0996C2.51906 22.8278 2.83604 23.7684 3.08963 24.2035C3.39332 24.7213 3.67861 25.1002 3.53034 25.7017C3.38105 26.3033 3.90356 26.0949 4.27372 26.101C4.39029 26.1021 4.51197 26.1031 4.6224 26.1031C4.86576 26.1021 4.96597 25.9254 4.81668 25.6864C4.55798 25.2738 4.14692 24.6631 3.81972 24.4016C3.52727 24.1677 3.04975 23.5529 3.09372 22.8411C3.52523 23.3537 4.01093 23.5151 4.41176 23.5519C4.88315 23.5938 5.32795 23.416 5.68992 23.3589C6.0703 23.2986 6.45988 23.3088 6.81266 23.3946C7.16441 23.4824 7.48446 23.6438 7.73089 23.8593C7.98141 24.0738 8.11945 24.3587 8.19205 24.6334C8.32804 25.1747 7.95584 25.6823 7.65522 25.9489C7.67363 25.9693 7.69714 25.9887 7.71759 26.0071C8.24317 25.6905 8.52641 25.138 8.42416 24.4782C8.32804 23.8297 7.74111 23.2087 6.91593 23.0085ZM6.48749 12.8691C7.13271 13.5503 7.82598 13.2766 8.13581 13.3134C8.44563 13.3491 8.8025 14.1437 8.61435 14.9137C8.42621 15.6838 8.35156 15.551 8.22272 16.0341C8.06116 16.6428 8.81477 17.0789 8.63992 17.6396C8.59186 17.7958 8.48347 18.0195 8.61435 18.1941C8.81784 18.4679 9.14811 18.1073 9.56428 18.1686C9.89047 18.2156 10.1778 18.1063 10.3199 18.0205C10.2708 17.7826 9.33114 17.9286 9.1205 17.5446C9.02848 17.3751 8.78205 15.6246 9.32705 14.8422C9.82809 14.1253 9.36284 13.9006 9.0203 13.3215C9.48964 13.0631 10.595 12.5137 10.595 12.5137C10.957 12.9304 11.2126 13.2899 11.4324 13.7923C11.549 14.0415 11.6288 14.3101 11.6196 14.5798C11.6267 14.8535 11.5245 15.1231 11.3517 15.3672C11.5807 15.3314 11.7903 14.9219 11.8537 14.6063C11.9141 14.2897 11.868 13.9639 11.7821 13.6626C11.4631 12.6863 10.7208 11.9877 10.7208 11.9877C10.7208 11.9877 9.71664 12.3319 8.78511 12.8374C8.49165 12.2859 8.19614 12.384 7.82905 12.4156C7.46503 12.4473 7.24519 12.0633 7.24519 12.0633C7.5274 12.1532 7.92006 12.1685 8.44666 11.9612C9.62666 11.4954 9.17879 10.5201 9.17879 10.5201C9.17879 10.5201 9.20333 11.2279 8.49778 11.3279C8.05912 11.3892 6.90775 11.1043 6.90775 11.1043C6.90775 11.1043 7.83007 10.997 8.01822 10.466C8.27385 9.73881 9.00598 10.0248 9.00598 10.0248C9.00598 10.0248 8.61537 9.56519 8.01311 9.92469C7.64602 10.1463 7.03659 10.2168 6.28912 9.83787C5.54268 9.45999 5.27171 10.0871 5.12037 10.1024C4.97006 10.1198 4.85247 9.8726 4.93632 9.61523C5.02119 9.35684 5.87909 9.11377 7.17054 9.06475C8.02333 9.03207 8.44155 9.19956 8.62662 9.31803C8.62867 9.24756 8.3986 8.93198 7.69612 8.75938C6.99364 8.58576 7.03966 8.29878 7.07238 7.80345C7.1051 7.30812 6.38524 7.50625 6.21039 7.44395C6.03554 7.38165 6.19812 6.99254 6.19812 6.99254C5.94658 7.06505 5.75434 7.26829 5.76354 7.57161C5.76866 7.77383 5.96294 7.91988 6.15619 8.01486C6.34945 8.11086 6.38115 8.28448 6.03349 8.4867C5.75229 8.6501 5.34942 8.86253 4.80952 9.09437C3.60805 9.6091 5.1081 10.4966 4.58048 10.7683C4.05081 11.0399 3.92197 11.3954 3.89232 11.5894C3.82687 12.0296 4.12136 12.3574 4.12136 12.3574C5.15412 11.7967 5.84228 12.1889 6.48749 12.8691ZM12.6012 11.2953C12.6012 10.8541 12.7147 10.6416 12.8364 10.6365C13.2086 10.6212 13.2883 11.1482 13.2934 11.2912C13.3088 11.7109 12.999 11.9121 12.999 11.9121C13.2648 11.9346 13.4744 11.5669 13.5092 11.3331C13.5593 10.9868 13.4979 10.8673 13.3752 10.6376C13.3752 10.6376 14.1534 11.3902 14.0706 12.2257C13.9765 13.1724 12.909 13.6688 12.909 13.6688C13.2249 13.7821 14.1401 13.6902 14.725 12.9447C15.0481 12.5331 15.1892 11.907 14.7976 10.9194C14.4428 10.0227 13.7659 9.2639 14.4857 7.54608C15.1872 5.87115 17.0431 5.65259 18.1597 6.44818C18.2323 6.49925 18.2742 6.56155 18.2987 6.62691C18.3713 6.82504 17.8498 7.08445 18.0779 7.20395C18.2353 7.28667 18.4409 7.30812 18.6188 7.44293C18.7814 7.56651 18.8141 7.6717 18.8969 7.7483C18.9593 7.80651 18.9869 7.81775 19.0472 7.81775C18.5421 7.22641 18.4582 6.55236 18.3764 5.84051C17.9797 5.73838 17.3508 5.41667 16.7291 5.34416C16.3396 5.2982 15.3968 5.23692 14.4509 5.70161C13.3855 6.22452 12.2586 7.24275 12.2586 9.60298C12.2576 10.6181 12.6012 11.3535 12.6012 11.2953ZM0.742927 16.7899C1.29203 16.6407 1.29203 16.2333 1.29918 16.1495C1.38712 16.2659 1.4178 16.3936 1.41984 16.559C1.66218 16.2435 1.6039 15.696 1.00981 15.3692C1.00981 15.3692 1.04355 16.0882 0.583413 16.3415C0.103847 16.605 0.0292023 16.7735 0.0026166 17.0339C-0.00863121 17.1616 0.0159095 17.2944 0.0854414 17.3965C0.147816 17.4997 0.253136 17.5722 0.352321 17.5967C0.207122 17.4016 0.178492 16.9431 0.742927 16.7899ZM12.228 6.74028C10.8823 6.81687 10.412 6.33482 9.4927 5.89158C8.57038 5.44731 7.77792 5.77208 7.63886 5.98145C8.0673 6.008 8.55402 6.17856 9.47737 6.75764C11.3404 7.92805 12.228 6.74028 12.228 6.74028ZM11.6247 3.88574C11.4294 3.93783 10.9559 4.01443 11.1768 5.1062C11.3987 6.19899 11.9887 5.93447 12.1472 5.79455C12.1472 5.79455 11.3455 5.71081 11.322 4.76406C11.2995 3.81528 12.3936 3.98992 12.3936 3.98992C12.3282 3.91638 11.9345 3.80302 11.6247 3.88574ZM23.6148 17.7723C23.35 16.8297 22.5054 14.9076 21.9277 14.0313C21.3469 13.154 21.0503 13.7832 20.8193 13.9813C20.5871 14.1794 19.9082 15.3223 19.6106 13.8495C19.312 12.3758 17.7915 11.1002 17.7915 11.1002C18.1055 12.2093 18.0216 13.0213 17.9398 13.7331C17.858 14.4439 18.039 14.6931 18.039 15.1221C18.039 15.5531 16.7506 15.8349 16.6821 16.1658C16.6167 16.4967 18.6014 17.8561 20.491 16.4937C21.0595 16.0841 21.4133 17.6733 21.5943 18.1032C21.7774 18.5342 21.4123 18.667 21.8428 19.1634C22.2733 19.6597 21.942 20.0784 21.942 20.3879C21.942 20.6779 22.7948 21.4072 22.9512 21.2478C23.2263 20.9741 22.6036 19.3441 22.3561 18.7814C22.1076 18.2176 21.7109 16.3967 21.4307 15.9003C21.2692 15.6164 20.4389 15.8176 20.4389 15.8176L20.3806 15.597C20.3806 15.597 20.4961 15.4499 20.6025 15.3376C21.4645 14.4429 21.397 14.8075 22.2907 15.9003C23.1833 16.9921 22.1076 17.4241 22.8848 17.9868C23.6629 18.5506 23.8787 18.716 23.6148 17.7723ZM9.45078 3.12386C9.45078 3.12386 9.61643 3.18003 9.93341 3.18718C10.2504 3.1933 10.4079 2.89917 10.4079 2.89917C9.63586 2.82257 9.40988 2.54989 9.40988 2.54989C9.40988 2.54989 10.1461 2.5121 10.5183 2.46308C10.8905 2.41303 11.5695 2.23124 11.5695 2.23124C11.5695 2.23124 11.5439 2.83993 11.5388 3.1933C11.5357 3.54667 11.9897 3.46905 12.1411 3.42105C12.3323 3.3608 12.3619 2.6561 12.3936 2.05353C12.4171 1.59803 12.0797 1.59395 11.8864 1.67463C11.6022 1.7931 11.0623 2.0709 10.4784 2.24962C9.89456 2.42733 8.98042 2.29762 8.98042 2.29762L8.93031 2.48759L9.69926 2.96045L9.45078 3.12386ZM10.7156 6.01413L10.9242 5.92528C10.9242 5.92528 10.7647 5.45855 10.7535 5.04594C10.7443 4.63129 10.914 3.71519 10.914 3.71519H10.7167C10.7167 3.71519 10.6267 4.38822 10.5101 4.97751C10.3946 5.5668 10.0858 5.4514 9.93444 5.44016C9.7831 5.42893 8.58265 5.25633 8.58265 5.25633V5.43301C8.58265 5.43301 8.65832 5.44323 9.2657 5.53106C9.87309 5.61889 10.7156 6.01413 10.7156 6.01413ZM11.4641 8.60823C10.9692 8.92585 10.1553 8.76857 10.1553 8.76857C10.2647 8.92177 10.8547 9.10356 11.1523 9.09845C11.4099 9.09335 11.638 8.99122 11.8404 8.76857C12.2822 8.2855 12.1022 7.48072 11.9948 7.37961C11.9959 7.37961 11.9468 8.29878 11.4641 8.60823ZM10.3189 22.9381C9.18083 21.8024 9.59598 21.9168 10.3189 20.9036C10.8537 20.153 13.4642 19.4902 14.7792 19.1991L14.7536 19.0786C14.0869 19.1082 13.0879 19.1429 12.0848 19.1419C10.3659 19.1409 9.67267 18.4862 9.22685 18.569C7.5182 18.8886 8.73297 20.8485 6.72881 20.5707C4.72363 20.2939 4.7901 22.3723 4.7901 22.3723C5.35862 21.2162 5.94658 21.3786 6.39956 21.3591C6.92411 21.3367 7.43538 21.7238 8.1716 21.1048C8.33316 20.97 9.06529 19.7843 8.95997 20.3767C8.89861 20.7229 8.59901 21.1181 8.35974 21.3898C8.18898 21.5838 8.08979 21.7319 8.43745 21.928C8.56118 21.9985 8.72376 22.0924 8.9344 22.214C9.74629 22.6807 9.61132 23.2108 9.08267 23.1842C8.70638 23.1638 8.26158 22.9789 7.88836 22.9401C7.73702 22.9248 7.56524 22.9871 7.80451 23.1015C7.93028 23.1617 8.07241 23.2486 8.19716 23.3721C8.79227 23.9675 8.08059 23.7326 9.78515 23.6407C10.1481 23.6203 10.4058 23.5866 10.5889 23.5488C11.2668 23.4007 10.4682 23.0862 10.3189 22.9381ZM19.085 23.9287C18.948 23.7153 18.8376 23.416 18.7098 23.1485C18.4378 22.5796 18.7047 22.6889 18.537 22.361C18.3488 21.9985 18.2548 22.3539 17.7813 21.6288C17.6883 21.4848 17.5001 21.5481 17.4776 21.8953C17.4531 22.2416 18.0339 22.5684 18.2987 23.4079C18.5656 24.2494 18.7844 24.3464 18.5676 24.8622C18.3539 25.379 17.2997 25.3473 17.2997 25.3473C18.1228 26.2042 19.7967 25.0358 19.085 23.9287Z" fill="#F5F5F5"/><path fill-rule="evenodd" clip-rule="evenodd" d="M27.9499 27.8815L27.6074 27.7569L37.6956 0L38.0371 0.124598L27.9499 27.8815Z" fill="#F5F5F5"/></svg>