<?xml version="1.0" encoding="utf-8"?>
<!-- Generator: Adobe Illustrator 25.4.1, SVG Export Plug-In . SVG Version: 6.00 Build 0)  -->
<svg version="1.1" id="Слой_1" xmlns="http://www.w3.org/2000/svg" xmlns:xlink="http://www.w3.org/1999/xlink" x="0px" y="0px"
	 viewBox="0 0 595.3 841.9" style="enable-background:new 0 0 595.3 841.9;" xml:space="preserve">
<style type="text/css">
	.st0{fill:#FFFFFF;}
	.st1{fill:#FFFFFF;stroke:#FFFFFF;stroke-width:12;stroke-miterlimit:10;}
	.st2{fill:#FFFFFF;stroke:#FFFFFF;stroke-width:7;stroke-miterlimit:10;}
	.st3{fill:#FFFFFF;stroke:#FFFFFF;stroke-width:21;stroke-miterlimit:10;}
	.st4{fill:#FFFFFF;stroke:#FFFFFF;stroke-linecap:square;stroke-miterlimit:10;}
	.st5{fill:none;stroke:#000000;stroke-linecap:square;stroke-miterlimit:10;}
	.st6{fill:url(#SVGID_1_);}
</style>
<g>
	<g>
		<path class="st0" d="M214.6,383.1c-10.2-1.7-20.4-2.2-30.3-0.9c-4.9,0.6-9.7,1.7-14.4,3.1s-9.3,3.2-13.7,5.3
			c-4.4,2.1-8.6,4.4-12.5,7.1c-3.8,2.7-7.4,5.6-10.4,8.9s-5.4,6.8-7.2,10.6c-0.9,1.9-1.6,3.9-2.2,5.8c-0.5,2-0.9,4-1.1,6.1
			c-0.5,4.2-0.3,8.4,0.5,12.4s2.3,7.8,4.3,11.3c2,3.5,4.6,6.8,7.8,9.8c3.2,2.9,6.7,5.7,10.7,8c1,0.6,2,1.2,3,1.7s2.2,1.2,3.1,1.6
			c1.9,1,3.9,1.8,6.1,2.5c4.2,1.4,9,2.4,14,3.3l15.3,2.6l7.6,1.3l7.6,1.2c5.1,0.8,10.2,1.3,15.7,2.3c2.8,0.5,5.6,1.2,8.3,2
			s5.4,1.8,7.8,2.6c2.5,0.9,5.1,1.9,7.7,3.1c2.6,1.2,5.2,2.5,7.6,4c2.4,1.5,4.7,3,6.9,4.6c1.1,0.8,2.2,1.6,3.3,2.4
			c0.5,0.4,1,0.8,1.6,1.3l1.8,1.5c4.7,4.2,8,9.2,10.5,14.5s4.1,10.8,4.9,16.5s0.9,11.4,0,17.1c-0.9,5.6-2.6,11.1-5.1,16.2
			c-5.1,10.2-13.6,18.6-23.7,23.5c-10,5-21.4,6.7-32.2,5.5c-1.4-0.1-2.7-0.4-4.1-0.6c-1.4-0.2-2.7-0.6-4-0.9
			c-1.3-0.3-2.6-0.8-3.9-1.2c-1.3-0.5-2.6-0.8-3.8-1.5c-5-2.1-9.6-5.1-13.7-8.7c-4.1-3.5-7.6-7.6-10.5-12c-0.8-1.1-1.4-2.2-2.1-3.4
			c-0.6-1.2-1.3-2.3-1.9-3.5c-1.2-2.3-2.3-4.8-3.1-7.3l-0.3-0.9l1.7-0.6l0.4,0.9c4.1,9.3,10.5,17.7,18.5,23.7c4,3,8.3,5.5,13,7.2
			c1.1,0.5,2.3,0.8,3.5,1.1s2.4,0.7,3.6,0.9c1.2,0.2,2.4,0.5,3.6,0.6c1.2,0.1,2.4,0.3,3.7,0.3c9.8,0.5,19.8-1.6,28.1-6.4
			c8.4-4.7,15-12,18.7-20.7c1.9-4.3,3-8.9,3.5-13.5c0.5-4.7,0.2-9.4-0.7-14c-0.9-4.6-2.4-9-4.6-13c-2.1-4-4.9-7.6-8.1-10.2l-1.2-1
			c-0.4-0.3-1-0.7-1.5-1.1c-1-0.7-2.1-1.4-3.1-2.1c-2.1-1.4-4.1-2.6-6.2-3.8c-4.1-2.2-8.4-3.9-13.2-5.4c-4.9-1.6-9.2-2.8-13.9-3.4
			c-4.7-0.7-10-1.1-15.2-1.6l-7.9-0.8l-7.8-0.9l-15.5-1.7c-5.3-0.6-10.8-1.3-16.5-2.8c-2.9-0.8-5.8-1.7-8.6-2.9
			c-1.5-0.6-2.6-1.1-3.9-1.7c-1.3-0.6-2.6-1.2-3.9-1.9c-5.1-2.7-10.1-6-14.7-10c-4.5-4-8.7-8.8-11.8-14.2s-5.4-11.5-6.5-17.7
			s-1-12.5,0-18.6c0.5-3,1.2-6,2.3-9c1.1-2.9,2.3-5.8,3.8-8.5c3.1-5.4,7-10.2,11.4-14.2s9.2-7.3,14.3-10c5-2.7,10.2-4.8,15.5-6.5
			s10.6-2.9,16.1-3.7c5.5-0.8,11-1.1,16.5-0.8c10.9,0.6,21.6,3.2,31.1,7.7l0.9,0.4l-0.5,1.6L214.6,383.1z"/>
	</g>
	<path class="st1" d="M160.8,439.9"/>
	<path class="st1" d="M240,483"/>
	<path class="st2" d="M309,408"/>
	<g>
		<path class="st0" d="M248.6,494.2c-7.3-2.7-14.1-7.3-19.7-13.4c-2.8-3.1-5.2-6.6-7.1-10.4c-1.9-3.8-3.2-7.9-4.1-12.1
			c-0.9-4.2-1.5-8.5-1.6-12.9c0-4.4,0.8-8.8,2.6-12.7c1.8-4,4.2-7.6,7.2-10.7c3-3,6.5-5.6,10.6-7.2l1.1,1c-0.8,4.3-1.7,7.9-2.6,11.5
			c-0.8,3.5-1.5,6.9-2.1,10.1c-0.1,0.8-0.3,1.6-0.5,2.4c-0.1,0.8-0.3,1.6-0.5,2.4s-0.3,1.6-0.6,2.4c-0.1,0.4-0.2,0.8-0.3,1.2
			l-0.3,1.2c-0.4,1.6-0.7,3.2-1,4.9l-0.3,2.5c-0.1,0.8,0,1.7,0,2.5c0.1,3.3,0.6,6.7,1.5,10s2.2,6.5,3.9,9.6
			c3.4,6.2,8.4,11.8,14.4,16.5L248.6,494.2z"/>
	</g>
	<g>
		<path class="st0" d="M253.6,418.8c-0.4,2.3-0.2,4.5-0.1,6.7c0.2,2.2,0.4,4.4,0.8,6.6c0.6,4.3,1.3,8.6,2.1,12.8
			c0.8,4.2,1.4,8.3,2,12.5s1.4,8.4,2.9,12.4s3.5,7.8,5.8,11.2c2.3,3.5,5.1,6.8,8.4,9.7c1.6,1.5,3.3,2.8,5.1,4.1
			c0.9,0.6,1.8,1.2,2.8,1.8l3,1.7c4.1,2.5,7.7,5,12.1,6.6l-0.3,1.5c-2.4-0.2-4.8-0.8-7.1-1.4c-2.3-0.7-4.5-1.6-6.7-2.3l-1.6-0.5
			l-1.7-0.6c-1.1-0.4-2.3-0.9-3.4-1.4c-2.3-1-4.5-2.1-6.6-3.4c-4.3-2.6-8.2-5.8-11.7-9.5c-3.4-3.7-6.4-7.9-8.9-12.4
			c-2.4-4.4-4.8-9-6.5-13.8s-2.6-9.9-2.6-15s0.8-10.2,2.3-15.1c0.8-2.5,1.8-4.9,3.1-7.2c0.7-1.1,1.4-2.3,2.3-3.3
			c0.9-1,1.9-2,3.2-2.7L253.6,418.8z"/>
	</g>
	<path class="st0" d="M243.9,337.3c16.8,13.6,22.6,31.5,16.6,42.1c-4.6,8-14.9,9.9-19,10.7c-15.5,2.8-35.6-3.9-43.9-20.1
		c-12.3-24.3,11.7-49.6,14.2-52.1c2.3-2.4,20.2-20,44.4-16.6c22.9,3.2,35.7,23.1,38.1,26.7c7.2,11.1,5.3,16.8,15.3,30.8
		c5.6,7.9,7.5,7.9,17.2,19c16.4,18.6,25.1,28.5,22.5,36.1c-3.9,11.3-30.8,11.3-37.9,11.3c-20.2,0-36.2-6.5-45.6-11.3
		c35.8,6.4,65,7,67.6-1.8c6.4-22-49.8-48-46.8-45c0.1,0.1,0.2,0.1,0.2,0.1c0.2-0.1-12.1-49.3-38.8-51.1
		c-17.5-1.2-37.5,18.2-37.3,36.7c0,1.8,0.1,13.6,9.6,20.7c10.3,7.7,23,3.5,24.2,3C244.5,376.4,265.8,374,243.9,337.3z"/>
	<path class="st0" d="M303.2,384.6c4,2.8,10,8.2,8.9,10.1c-0.7,1.2-3.9-0.2-15.4-2.4c-8.8-1.6-11.3-1.6-11.9-3.3
		c-0.9-2.7,3.5-7.8,8.4-8.4C296.8,380,299.5,382,303.2,384.6z"/>
	<path class="st3" d="M89.1,523.6"/>
	<path class="st4" d="M171.6,496"/>
</g>
<g>
	<path class="st0" d="M310.4,476.5v24.1c0,1.1,0.1,1.9,0.4,2.5s0.8,1,1.5,1.4v1.7h-12.7v-1.7c0.7-0.4,1.2-0.8,1.5-1.4
		s0.4-1.4,0.4-2.5V439c0-1.1-0.1-1.9-0.4-2.5s-0.8-1-1.5-1.4v-1.7H325c3.1,0,5.5,0.3,7.4,1c1.8,0.6,3.4,1.8,4.7,3.4
		c1.6,1.9,2.7,4.4,3.5,7.5c0.7,3,1.1,6.3,1.1,9.8c0,11.9-3.7,18.8-11,20.8l7.9,20.1c1.4,3.5,2.4,5.8,3,6.8s1.4,1.6,2.4,1.7v1.7
		h-14.7v-1.7c1-0.3,1.5-0.9,1.5-1.9c0-0.6-0.5-2.2-1.4-4.6l-8.2-21.4L310.4,476.5L310.4,476.5z M310.4,464.6h13.7
		c2,0,3.5-0.1,4.3-0.3c0.8-0.2,1.6-0.7,2.3-1.3c1.5-1.5,2.3-4.1,2.3-7.9s-0.8-6.4-2.3-7.9c-0.7-0.7-1.5-1.2-2.3-1.4
		c-0.8-0.2-2.2-0.3-4.3-0.3h-13.7V464.6L310.4,464.6z"/>
	<path class="st0" d="M372.8,491.7h-14.6l-1.6,6.3c-0.4,1.5-0.6,2.7-0.6,3.6c0,1.6,0.6,2.7,1.8,3.1v1.5h-11.6v-1.5
		c0.7-0.2,1.2-0.6,1.6-1.2s0.8-1.7,1.2-3.5l11.6-42.8c0.4-1.6,0.6-3,0.6-4.2c0-1.4-0.5-2.5-1.6-3.3v-1.5H372v1.5
		c-1,0.8-1.5,1.9-1.5,3.5c0,1.1,0.2,2.5,0.7,4.2l12,41.5c0.7,2.2,1.2,3.7,1.5,4.4c0.4,0.7,1,1.1,1.7,1.4v1.5h-12.9v-1.5
		c1.2-0.4,1.8-1.4,1.8-3.1c0-1.1-0.2-2.4-0.7-4L372.8,491.7z M370.5,483.6l-5.2-18.6l-4.9,18.6H370.5z"/>
	<path class="st0" d="M397.2,461.3v39.9c0,1,0.1,1.8,0.4,2.3s0.8,1,1.4,1.4v1.4h-11.4v-1.4c0.7-0.3,1.1-0.7,1.4-1.3
		c0.3-0.5,0.4-1.3,0.4-2.4v-39.9H380c-0.6,0-1.1,0.2-1.4,0.7s-0.6,1.3-0.8,2.4H377v-16.2h0.8c0.2,1.1,0.4,2,0.7,2.4
		c0.3,0.5,0.8,0.7,1.4,0.7h26.7c0.6,0,1.1-0.2,1.4-0.7s0.6-1.3,0.8-2.5h0.8v16.2h-0.8c-0.2-1.2-0.5-2-0.8-2.4
		c-0.3-0.5-0.8-0.7-1.4-0.7L397.2,461.3L397.2,461.3z"/>
	<path class="st0" d="M430.9,461.4v39.9c0,1,0.1,1.8,0.4,2.3c0.2,0.5,0.7,1,1.3,1.4v1.4H422V505c0.6-0.3,1.1-0.7,1.3-1.3
		c0.3-0.5,0.4-1.3,0.4-2.4v-39.9h-8.9c-0.6,0-1,0.2-1.3,0.7s-0.5,1.3-0.7,2.4h-0.7v-16.2h0.7c0.2,1.1,0.4,2,0.7,2.4
		c0.3,0.5,0.7,0.7,1.3,0.7h25c0.6,0,1-0.2,1.3-0.7s0.5-1.3,0.7-2.5h0.7v16.2h-0.7c-0.2-1.2-0.4-2-0.7-2.4c-0.3-0.5-0.7-0.7-1.3-0.7
		L430.9,461.4L430.9,461.4z"/>
	<path class="st0" d="M481.2,456.2v29.1c0,6.6-0.8,11.5-2.5,14.6c-2.7,5-7.7,7.4-15.1,7.4c-5,0-9-1.2-12-3.6
		c-2.2-1.7-3.7-4.2-4.5-7.4c-0.8-3-1.1-6.6-1.1-11.1v-29.1c0-1-0.1-1.8-0.4-2.3s-0.8-1-1.5-1.3v-1.4h12.3v1.4
		c-0.8,0.3-1.3,0.8-1.6,1.3c-0.3,0.5-0.4,1.3-0.4,2.3v26.5c0,3.1,0.2,5.4,0.5,7.1c0.3,1.6,0.9,3,1.8,4c1.7,2.1,4.1,3.2,7.4,3.2
		c3.2,0,5.7-1.1,7.4-3.2c0.8-1,1.4-2.4,1.7-4c0.3-1.6,0.5-4,0.5-7.1v-26.5c0-1-0.1-1.8-0.4-2.3s-0.8-1-1.6-1.3v-1.4h11.6v1.4
		c-0.8,0.3-1.3,0.8-1.5,1.3C481.4,454.4,481.2,455.2,481.2,456.2z"/>
	<path class="st0" d="M516.1,454.8l-4.2,13.4l-0.8-0.7c0-1.1-0.2-2-0.6-2.7c-1.2-1.8-2.9-3.2-5.2-4.3s-4.6-1.7-7-1.7
		c-2,0-3.8,0.5-5.4,1.4c-2.2,1.3-3.4,3.3-3.4,5.8c0,1.7,0.5,2.9,1.6,3.6s3.2,1.3,6.2,1.7l4.9,0.6c4.3,0.5,7.5,1.9,9.8,4.1
		c1.2,1.2,2.3,2.9,3.1,4.9c1,2.6,1.5,5.5,1.5,8.7c0,5.9-1.6,10.5-4.8,13.9c-3,3.3-7.2,4.9-12.4,4.9c-5.2,0-10.3-1.8-15.2-5.5
		c-0.3-0.2-0.6-0.4-0.8-0.4c-0.4,0-0.8,0.4-1.1,1.2l-0.8-0.5l3.6-14.1l0.8,0.5c0,0.2,0,0.3,0,0.4c0,0.9,0.2,1.6,0.6,2.3
		c1,1.5,2.8,2.8,5.4,3.9c2.5,1.1,5.1,1.7,7.5,1.7c2.2,0,4.2-0.5,5.9-1.4c2.1-1.2,3.2-3,3.2-5.6c0-2.1-0.8-3.5-2.2-4.4
		c-1-0.5-2.8-1-5.4-1.4l-4.9-0.7c-2.6-0.3-4.6-0.8-6-1.3s-2.6-1.4-3.6-2.4c-1.3-1.4-2.4-3.2-3.1-5.6c-0.8-2.4-1.1-5-1.1-7.8
		c0-6.3,1.6-11.1,4.9-14.4c3-3,6.7-4.5,11.1-4.5c2.4,0,4.6,0.4,6.7,1.3s4.5,2.4,7.4,4.6c0.8,0.6,1.4,1,1.8,1s0.8-0.4,1.3-1.1
		L516.1,454.8z"/>
</g>
<path d="M-38.7,341.9"/>
<path class="st5" d="M-105.1,369.1"/>
<linearGradient id="SVGID_1_" gradientUnits="userSpaceOnUse" x1="-1407.6" y1="744.29" x2="-1407.6" y2="744.29" gradientTransform="matrix(1 0 0 -1 0 841.89)">
	<stop  offset="0" style="stop-color:#FFFFFF"/>
	<stop  offset="1" style="stop-color:#000000"/>
</linearGradient>
<path class="st6" d="M-1407.6,97.6"/>
</svg>
