<?xml version="1.0" encoding="utf-8"?>
<!-- Generator: Adobe Illustrator 25.4.1, SVG Export Plug-In . SVG Version: 6.00 Build 0)  -->
<svg version="1.1" id="Слой_1" xmlns="http://www.w3.org/2000/svg" xmlns:xlink="http://www.w3.org/1999/xlink" x="0px" y="0px"
	 viewBox="0 0 595.28 841.89" style="enable-background:new 0 0 595.28 841.89;" xml:space="preserve">
<style type="text/css">
	.st0{fill:none;stroke:#000000;stroke-width:12;stroke-miterlimit:10;}
	.st1{fill:none;stroke:#000000;stroke-width:7;stroke-miterlimit:10;}
	.st2{fill:none;stroke:#000000;stroke-width:21;stroke-miterlimit:10;}
	.st3{fill:none;stroke:#000000;stroke-linecap:square;stroke-miterlimit:10;}
</style>
<g>
	<path d="M214.6,383.09c-10.23-1.7-20.44-2.21-30.27-0.88c-4.91,0.64-9.71,1.68-14.35,3.12c-4.69,1.43-9.3,3.22-13.7,5.27
		c-4.4,2.06-8.59,4.43-12.47,7.07c-3.84,2.69-7.39,5.62-10.36,8.92c-2.98,3.27-5.44,6.82-7.17,10.62c-0.91,1.88-1.57,3.85-2.17,5.83
		c-0.53,1.95-0.92,4.04-1.13,6.13c-0.48,4.19-0.28,8.4,0.49,12.39c0.83,3.99,2.29,7.77,4.31,11.29c2.04,3.51,4.63,6.83,7.83,9.75
		c3.17,2.94,6.74,5.66,10.72,7.96c0.98,0.6,1.99,1.16,3.03,1.73c1,0.55,2.22,1.18,3.12,1.62c1.94,0.96,3.94,1.77,6.05,2.48
		c4.24,1.39,9,2.37,14,3.26l15.32,2.58l7.65,1.26l7.6,1.16c5.09,0.75,10.2,1.33,15.72,2.33c2.75,0.51,5.57,1.17,8.29,1.97
		c2.72,0.8,5.38,1.75,7.82,2.65c2.5,0.92,5.07,1.91,7.67,3.07c2.59,1.16,5.17,2.49,7.61,3.95c2.44,1.46,4.74,3.02,6.95,4.61
		c1.1,0.8,2.2,1.6,3.26,2.41c0.54,0.42,1.04,0.77,1.62,1.26l1.79,1.54c4.66,4.2,8.01,9.22,10.5,14.49
		c2.48,5.28,4.07,10.85,4.88,16.52c0.78,5.66,0.86,11.43-0.05,17.08c-0.89,5.64-2.64,11.14-5.15,16.25
		c-5.07,10.21-13.64,18.56-23.68,23.48c-10.03,4.97-21.35,6.71-32.2,5.47c-1.36-0.09-2.71-0.39-4.05-0.61
		c-1.35-0.19-2.67-0.58-4-0.9c-1.34-0.29-2.62-0.78-3.91-1.22c-1.29-0.45-2.59-0.85-3.81-1.47c-5.03-2.12-9.63-5.13-13.68-8.67
		c-4.05-3.55-7.56-7.64-10.52-12.05c-0.76-1.09-1.41-2.25-2.12-3.36c-0.64-1.16-1.32-2.3-1.9-3.49c-1.21-2.35-2.28-4.77-3.15-7.29
		l-0.31-0.9l1.71-0.63l0.38,0.87c4.09,9.3,10.52,17.66,18.46,23.74c3.96,3.04,8.33,5.53,12.99,7.16c1.13,0.5,2.34,0.78,3.52,1.12
		c1.19,0.32,2.36,0.7,3.58,0.88c1.21,0.21,2.41,0.49,3.64,0.58c1.23,0.12,2.44,0.32,3.67,0.32c9.8,0.48,19.76-1.63,28.1-6.4
		c8.36-4.72,14.98-12.02,18.69-20.67c1.85-4.31,3.05-8.87,3.55-13.52c0.52-4.65,0.2-9.38-0.67-13.95
		c-0.89-4.57-2.42-9.01-4.57-13.03c-2.13-4.01-4.92-7.61-8.13-10.2l-1.2-0.96c-0.42-0.33-1.01-0.71-1.5-1.07
		c-1.03-0.72-2.06-1.41-3.09-2.1c-2.06-1.36-4.12-2.63-6.19-3.75c-4.11-2.25-8.39-3.85-13.24-5.4c-4.89-1.61-9.19-2.76-13.94-3.41
		c-4.73-0.67-9.97-1.06-15.18-1.61l-7.85-0.83l-7.78-0.91l-15.53-1.69c-5.26-0.61-10.78-1.32-16.53-2.8
		c-2.87-0.75-5.76-1.71-8.56-2.87c-1.48-0.61-2.6-1.11-3.92-1.72c-1.28-0.6-2.58-1.21-3.87-1.89c-5.13-2.68-10.11-5.98-14.68-9.95
		c-4.54-4-8.65-8.78-11.84-14.23c-3.19-5.45-5.42-11.53-6.51-17.74c-1.05-6.23-1.01-12.53,0-18.62c0.52-3.05,1.25-6.04,2.29-9.05
		c1.08-2.93,2.27-5.83,3.82-8.53c3.05-5.42,6.96-10.24,11.37-14.24c4.41-4.03,9.25-7.33,14.27-10.04
		c5.03-2.71,10.23-4.84,15.51-6.53c5.3-1.68,10.64-2.94,16.09-3.73c5.49-0.83,11.04-1.09,16.5-0.82
		c10.93,0.62,21.55,3.24,31.13,7.74l0.87,0.41l-0.49,1.56L214.6,383.09z"/>
</g>
<path class="st0" d="M160.78,439.93"/>
<path class="st0" d="M240,483"/>
<path class="st1" d="M309,408"/>
<g>
	<path d="M248.61,494.25c-7.34-2.7-14.15-7.28-19.73-13.39c-2.76-3.07-5.16-6.57-7.08-10.35c-1.87-3.81-3.24-7.89-4.12-12.1
		c-0.88-4.2-1.54-8.54-1.56-12.93c-0.01-4.38,0.83-8.77,2.65-12.72c1.79-3.96,4.2-7.6,7.16-10.7c3.01-3.05,6.49-5.62,10.61-7.18
		l1.14,0.98c-0.78,4.28-1.73,7.93-2.55,11.46c-0.8,3.53-1.48,6.88-2.11,10.13c-0.15,0.82-0.3,1.63-0.49,2.42
		c-0.14,0.81-0.29,1.6-0.49,2.39c-0.23,0.78-0.33,1.59-0.55,2.37c-0.09,0.4-0.22,0.79-0.32,1.18l-0.27,1.19
		c-0.45,1.59-0.73,3.21-1.03,4.86l-0.26,2.49c-0.07,0.84-0.02,1.66-0.02,2.5c0.13,3.33,0.62,6.68,1.5,9.98
		c0.89,3.29,2.17,6.53,3.88,9.63c3.38,6.22,8.38,11.81,14.37,16.46L248.61,494.25z"/>
</g>
<g>
	<path d="M253.61,418.82c-0.4,2.27-0.21,4.48-0.05,6.7c0.19,2.21,0.44,4.4,0.75,6.56c0.59,4.33,1.31,8.58,2.09,12.75
		c0.79,4.18,1.44,8.3,2.01,12.49c0.59,4.18,1.38,8.41,2.94,12.36c1.51,3.95,3.45,7.75,5.83,11.25c2.33,3.55,5.13,6.83,8.37,9.69
		c1.61,1.45,3.32,2.81,5.14,4.06c0.9,0.63,1.84,1.21,2.79,1.79l3.03,1.74c4.12,2.51,7.73,5.04,12.08,6.57l-0.32,1.47
		c-2.39-0.21-4.78-0.75-7.08-1.44c-2.3-0.71-4.53-1.58-6.66-2.28l-1.61-0.5l-1.74-0.58c-1.15-0.42-2.3-0.85-3.43-1.35
		c-2.27-0.97-4.49-2.1-6.64-3.38c-4.27-2.6-8.24-5.81-11.72-9.51c-3.44-3.74-6.41-7.92-8.89-12.35c-2.45-4.44-4.76-9.02-6.49-13.84
		c-1.73-4.81-2.59-9.89-2.55-14.98c0.03-5.08,0.76-10.17,2.33-15.09c0.8-2.45,1.81-4.87,3.15-7.16c0.69-1.14,1.43-2.26,2.34-3.29
		c0.89-1.02,1.93-2.02,3.2-2.67L253.61,418.82z"/>
</g>
<path d="M243.89,337.26c16.83,13.61,22.58,31.53,16.59,42.07c-4.56,8.04-14.87,9.92-18.96,10.67c-15.49,2.83-35.56-3.85-43.85-20.15
	c-12.34-24.27,11.74-49.61,14.22-52.15c2.32-2.37,20.18-20.04,44.44-16.59c22.92,3.25,35.74,23.09,38.07,26.69
	c7.17,11.09,5.34,16.77,15.26,30.79c5.59,7.9,7.46,7.91,17.19,18.96c16.4,18.63,25.13,28.55,22.52,36.15
	c-3.89,11.32-30.78,11.33-37.93,11.33c-20.24,0.01-36.2-6.49-45.63-11.33c35.78,6.43,65.04,6.97,67.56-1.78
	c6.35-22.05-49.78-48-46.81-45.04c0.1,0.1,0.24,0.13,0.25,0.12c0.23-0.13-12.09-49.28-38.77-51.08
	c-17.47-1.18-37.5,18.17-37.33,36.74c0.02,1.83,0.12,13.56,9.61,20.66c10.3,7.71,22.98,3.46,24.17,3.04
	C244.48,376.37,265.81,374,243.89,337.26z"/>
<path d="M303.19,384.56c3.98,2.79,9.97,8.19,8.89,10.07c-0.72,1.25-3.92-0.23-15.41-2.37c-8.83-1.65-11.31-1.59-11.89-3.3
	c-0.91-2.68,3.49-7.78,8.44-8.44C296.75,380.04,299.47,381.96,303.19,384.56z"/>
<path class="st2" d="M89.14,523.56"/>
<path d="M-38.74,341.89"/>
<path class="st3" d="M171.63,495.96"/>
<path class="st3" d="M-105.11,369.15"/>
<g>
	<path d="M310.41,476.55v24.12c0,1.07,0.14,1.89,0.43,2.48c0.29,0.58,0.78,1.04,1.47,1.36v1.7h-12.67v-1.7
		c0.71-0.35,1.21-0.82,1.49-1.38c0.28-0.57,0.42-1.38,0.42-2.45v-61.56c0-1.1-0.14-1.93-0.42-2.5c-0.28-0.57-0.77-1.03-1.49-1.38
		v-1.7h25.41c3.09,0,5.55,0.32,7.36,0.96c1.81,0.64,3.4,1.76,4.74,3.35c1.57,1.85,2.74,4.35,3.51,7.51c0.73,3.05,1.1,6.32,1.1,9.8
		c0,11.86-3.68,18.8-11.04,20.82l7.88,20.08c1.39,3.51,2.41,5.78,3.05,6.79c0.64,1.01,1.43,1.57,2.37,1.68v1.7h-14.67v-1.7
		c1.01-0.28,1.51-0.92,1.51-1.92c0-0.64-0.47-2.18-1.4-4.63l-8.22-21.41H310.41z M310.41,464.56h13.69c2.02,0,3.45-0.11,4.28-0.32
		c0.83-0.21,1.6-0.66,2.29-1.33c1.51-1.45,2.26-4.08,2.26-7.88c0-3.8-0.75-6.42-2.26-7.88c-0.71-0.71-1.47-1.16-2.28-1.36
		c-0.8-0.19-2.24-0.29-4.3-0.29h-13.69V464.56z"/>
	<path d="M372.82,491.74h-14.56l-1.64,6.3c-0.4,1.52-0.59,2.7-0.59,3.56c0,1.65,0.6,2.7,1.81,3.15v1.45H346.2v-1.45
		c0.72-0.21,1.25-0.6,1.6-1.19c0.35-0.58,0.76-1.74,1.23-3.46l11.56-42.77c0.43-1.62,0.65-3.03,0.65-4.24
		c0-1.41-0.53-2.51-1.58-3.31v-1.45h12.3v1.45c-1.04,0.76-1.55,1.93-1.55,3.51c0,1.14,0.24,2.53,0.71,4.18l11.99,41.48
		c0.66,2.25,1.18,3.71,1.55,4.38c0.38,0.67,0.95,1.13,1.72,1.41v1.45h-12.93v-1.45c1.22-0.38,1.84-1.42,1.84-3.14
		c0-1.06-0.24-2.38-0.71-3.96L372.82,491.74z M370.54,483.63l-5.19-18.61l-4.93,18.61H370.54z"/>
	<path d="M397.21,461.26v39.9c0,1.01,0.13,1.79,0.4,2.33c0.27,0.54,0.75,0.99,1.44,1.35v1.37h-11.39v-1.37
		c0.67-0.29,1.15-0.72,1.42-1.27c0.28-0.55,0.42-1.34,0.42-2.35v-39.94h-9.49c-0.61,0-1.08,0.23-1.4,0.7
		c-0.32,0.47-0.57,1.28-0.76,2.44h-0.78v-16.22h0.78c0.17,1.14,0.42,1.95,0.73,2.43c0.32,0.47,0.78,0.71,1.4,0.71h26.71
		c0.61,0,1.08-0.23,1.4-0.69c0.32-0.46,0.57-1.27,0.76-2.45h0.78v16.22h-0.78c-0.19-1.16-0.45-1.97-0.76-2.44
		c-0.32-0.47-0.78-0.7-1.4-0.7H397.21z"/>
	<path d="M430.94,461.44v39.9c0,1.01,0.12,1.79,0.38,2.33c0.25,0.54,0.7,0.99,1.34,1.35v1.37h-10.65v-1.37
		c0.63-0.29,1.07-0.72,1.33-1.27c0.26-0.55,0.39-1.34,0.39-2.35v-39.94h-8.87c-0.57,0-1.01,0.23-1.3,0.7
		c-0.29,0.47-0.53,1.28-0.71,2.44h-0.73v-16.22h0.73c0.16,1.14,0.39,1.95,0.69,2.43c0.3,0.47,0.73,0.71,1.31,0.71h24.98
		c0.57,0,1.01-0.23,1.31-0.69c0.3-0.46,0.53-1.27,0.71-2.45h0.73v16.22h-0.73c-0.18-1.16-0.42-1.97-0.71-2.44
		c-0.3-0.47-0.73-0.7-1.3-0.7H430.94z"/>
	<path d="M481.22,456.18v29.14c0,6.65-0.83,11.53-2.49,14.64c-2.67,4.95-7.71,7.42-15.11,7.42c-4.95,0-8.95-1.2-12-3.59
		c-2.2-1.74-3.7-4.21-4.51-7.42c-0.75-2.95-1.12-6.63-1.12-11.06v-29.14c0-1.01-0.15-1.78-0.44-2.31c-0.29-0.52-0.81-0.97-1.55-1.33
		v-1.38h12.31v1.38c-0.76,0.33-1.28,0.76-1.56,1.3c-0.29,0.54-0.43,1.32-0.43,2.33v26.48c0,3.08,0.17,5.44,0.51,7.08
		c0.34,1.64,0.94,2.98,1.79,4.03c1.7,2.13,4.15,3.19,7.37,3.19c3.21,0,5.67-1.06,7.37-3.19c0.83-1.05,1.41-2.39,1.74-4.03
		c0.33-1.64,0.5-4,0.5-7.08v-26.48c0-1.01-0.14-1.78-0.42-2.31c-0.28-0.52-0.8-0.97-1.57-1.33v-1.38h11.59v1.38
		c-0.75,0.33-1.26,0.76-1.55,1.3C481.36,454.39,481.22,455.17,481.22,456.18z"/>
	<path d="M516.12,454.78l-4.2,13.41l-0.75-0.67c0-1.13-0.22-2.02-0.65-2.67c-1.18-1.75-2.92-3.19-5.22-4.32s-4.63-1.7-6.99-1.7
		c-2.01,0-3.79,0.46-5.35,1.39c-2.24,1.34-3.36,3.27-3.36,5.81c0,1.68,0.54,2.87,1.62,3.57c1.08,0.7,3.16,1.26,6.25,1.67l4.91,0.62
		c4.29,0.55,7.55,1.92,9.79,4.11c1.24,1.23,2.27,2.88,3.08,4.93c1.01,2.57,1.52,5.47,1.52,8.69c0,5.86-1.6,10.48-4.79,13.88
		c-3.05,3.26-7.17,4.88-12.37,4.88c-5.24,0-10.31-1.83-15.2-5.5c-0.33-0.24-0.61-0.36-0.84-0.36c-0.42,0-0.8,0.41-1.15,1.23
		l-0.78-0.51l3.57-14.08l0.78,0.51c0,0.21,0,0.34,0,0.41c0,0.89,0.21,1.64,0.62,2.26c1.04,1.51,2.83,2.82,5.38,3.93
		c2.55,1.11,5.07,1.67,7.55,1.67c2.2,0,4.17-0.48,5.91-1.44c2.15-1.16,3.23-3.05,3.23-5.65c0-2.09-0.75-3.55-2.24-4.37
		c-0.99-0.55-2.79-1.01-5.38-1.39l-4.88-0.67c-2.63-0.34-4.64-0.79-6.03-1.34c-1.39-0.55-2.6-1.35-3.64-2.42
		c-1.33-1.37-2.36-3.24-3.11-5.6c-0.75-2.36-1.12-4.95-1.12-7.76c0-6.3,1.64-11.12,4.91-14.44c2.98-3.01,6.67-4.52,11.07-4.52
		c2.38,0,4.61,0.44,6.67,1.31c2.06,0.88,4.52,2.41,7.38,4.6c0.85,0.65,1.44,0.98,1.77,0.98c0.33,0,0.76-0.38,1.27-1.13
		L516.12,454.78z"/>
</g>
</svg>
